<svg width="135" height="41" viewBox="0 0 135 41" fill="none" xmlns="http://www.w3.org/2000/svg">
<g clip-path="url(#clip0_3593_757)">
<path d="M130 0.478271H5C2.23858 0.478271 0 2.71685 0 5.47827V35.4783C0 38.2397 2.23858 40.4783 5 40.4783H130C132.761 40.4783 135 38.2397 135 35.4783V5.47827C135 2.71685 132.761 0.478271 130 0.478271Z" fill="black"/>
<path d="M130 1.27827C131.114 1.27827 132.182 1.72077 132.97 2.50842C133.758 3.29608 134.2 4.36436 134.2 5.47827V35.4783C134.2 36.5922 133.758 37.6605 132.97 38.4481C132.182 39.2358 131.114 39.6783 130 39.6783H5C3.88609 39.6783 2.8178 39.2358 2.03015 38.4481C1.2425 37.6605 0.8 36.5922 0.8 35.4783V5.47827C0.8 4.36436 1.2425 3.29608 2.03015 2.50842C2.8178 1.72077 3.88609 1.27827 5 1.27827H130ZM130 0.478271H5C3.67392 0.478271 2.40215 1.00506 1.46447 1.94274C0.526784 2.88042 0 4.15219 0 5.47827V35.4783C0 36.8044 0.526784 38.0761 1.46447 39.0138C2.40215 39.9515 3.67392 40.4783 5 40.4783H130C131.326 40.4783 132.598 39.9515 133.536 39.0138C134.473 38.0761 135 36.8044 135 35.4783V5.47827C135 4.15219 134.473 2.88042 133.536 1.94274C132.598 1.00506 131.326 0.478271 130 0.478271Z" fill="#A6A6A6"/>
<path d="M47.42 10.7182C47.4364 11.085 47.3785 11.4512 47.2496 11.7949C47.1207 12.1387 46.9235 12.4527 46.67 12.7182C46.3859 13.0115 46.0431 13.2415 45.664 13.3932C45.2849 13.5448 44.878 13.6147 44.47 13.5982C44.0597 13.6074 43.6518 13.5322 43.2717 13.3774C42.8916 13.2226 42.5472 12.9915 42.26 12.6982C41.6773 12.1022 41.3511 11.3018 41.3511 10.4682C41.3511 9.6347 41.6773 8.83427 42.26 8.23824C42.7055 7.80292 43.2697 7.50897 43.8818 7.39332C44.4938 7.27768 45.1264 7.34549 45.7 7.58824C46.0606 7.73647 46.3823 7.96572 46.64 8.25824L46.11 8.78824C45.9114 8.54901 45.6598 8.35937 45.3751 8.23439C45.0904 8.10941 44.7805 8.05252 44.47 8.06824C44.078 8.07095 43.6927 8.16963 43.3477 8.35565C43.0026 8.54167 42.7084 8.80938 42.4907 9.13536C42.273 9.46135 42.1385 9.83569 42.0989 10.2257C42.0593 10.6157 42.1158 11.0094 42.2635 11.3725C42.4112 11.7356 42.6456 12.057 42.9462 12.3086C43.2468 12.5602 43.6044 12.7343 43.9878 12.8158C44.3713 12.8972 44.7688 12.8835 45.1457 12.7759C45.5226 12.6682 45.8675 12.4699 46.15 12.1982C46.4555 11.8633 46.6326 11.4312 46.65 10.9782H44.47V10.2582H47.38C47.4028 10.4106 47.4162 10.5642 47.42 10.7182Z" fill="white" stroke="white" stroke-width="0.1892" stroke-miterlimit="10"/>
<path d="M52 8.21827H49.3V10.1183H51.76V10.8383H49.3V12.7383H52V13.4783H48.52V7.47827H52V8.21827Z" fill="white" stroke="white" stroke-width="0.1892" stroke-miterlimit="10"/>
<path d="M55.28 13.4783H54.51V8.21827H52.83V7.47827H57V8.21827H55.28V13.4783Z" fill="white" stroke="white" stroke-width="0.1892" stroke-miterlimit="10"/>
<path d="M59.94 13.4783V7.47827H60.71V13.4783H59.94Z" fill="white" stroke="white" stroke-width="0.1892" stroke-miterlimit="10"/>
<path d="M64.1299 13.4783H63.3599V8.21827H61.6799V7.47827H65.7999V8.21827H64.1299V13.4783Z" fill="white" stroke="white" stroke-width="0.1892" stroke-miterlimit="10"/>
<path d="M73.61 12.6982C73.3212 12.9872 72.9782 13.2165 72.6007 13.373C72.2232 13.5294 71.8186 13.61 71.41 13.61C71.0014 13.61 70.5967 13.5294 70.2192 13.373C69.8418 13.2165 69.4988 12.9872 69.21 12.6982C68.6447 12.0972 68.3299 11.3032 68.3299 10.4782C68.3299 9.65311 68.6447 8.85912 69.21 8.25817C69.4926 7.96097 69.8344 7.7264 70.2134 7.56965C70.5924 7.41289 71 7.33744 71.41 7.34817C71.8194 7.3417 72.2258 7.41909 72.6041 7.57559C72.9825 7.73209 73.3248 7.96439 73.61 8.25817C73.8975 8.55066 74.1235 8.8978 74.2747 9.2791C74.4258 9.66039 74.499 10.0681 74.49 10.4782C74.5031 10.8887 74.4318 11.2976 74.2804 11.6795C74.129 12.0614 73.9008 12.4081 73.61 12.6982ZM69.78 12.1982C69.993 12.414 70.2468 12.5855 70.5266 12.7025C70.8064 12.8194 71.1067 12.8797 71.41 12.8797C71.7133 12.8797 72.0135 12.8194 72.2934 12.7025C72.5732 12.5855 72.827 12.414 73.04 12.1982C73.4715 11.7293 73.711 11.1154 73.711 10.4782C73.711 9.84097 73.4715 9.22704 73.04 8.75817C72.827 8.54229 72.5732 8.37088 72.2934 8.25389C72.0135 8.13689 71.7133 8.07665 71.41 8.07665C71.1067 8.07665 70.8064 8.13689 70.5266 8.25389C70.2468 8.37088 69.993 8.54229 69.78 8.75817C69.3485 9.22704 69.109 9.84097 69.109 10.4782C69.109 11.1154 69.3485 11.7293 69.78 12.1982Z" fill="white" stroke="white" stroke-width="0.1892" stroke-miterlimit="10"/>
<path d="M75.58 13.4783V7.47827H76.51L79.43 12.1483V10.9883V7.47827H80.2V13.4783H79.4L76.35 8.58827V9.73827V13.4783H75.58Z" fill="white" stroke="white" stroke-width="0.1892" stroke-miterlimit="10"/>
<path d="M68.14 22.2284C67.2974 22.2304 66.4744 22.4822 65.7749 22.9519C65.0755 23.4217 64.531 24.0883 64.2104 24.8674C63.8898 25.6466 63.8075 26.5033 63.9738 27.3293C64.1401 28.1553 64.5476 28.9134 65.1448 29.5078C65.742 30.1021 66.502 30.5061 67.3287 30.6685C68.1555 30.8309 69.0118 30.7446 69.7895 30.4203C70.5671 30.0961 71.2311 29.5485 71.6976 28.8468C72.164 28.1452 72.412 27.321 72.41 26.4784C72.4181 25.9164 72.3131 25.3584 72.1012 24.8378C71.8892 24.3172 71.5746 23.8445 71.1762 23.4479C70.7778 23.0514 70.3037 22.7391 69.7821 22.5296C69.2604 22.3201 68.702 22.2176 68.14 22.2284ZM68.14 29.0584C67.6236 29.0946 67.1082 28.9745 66.6609 28.7138C66.2137 28.4532 65.8552 28.064 65.632 27.5969C65.4088 27.1298 65.3314 26.6063 65.4097 26.0946C65.4879 25.5829 65.7184 25.1065 66.0709 24.7275C66.4235 24.3484 66.882 24.0842 67.3868 23.9692C67.8915 23.8542 68.4192 23.8937 68.9012 24.0825C69.3832 24.2714 69.7972 24.6009 70.0895 25.0281C70.3818 25.4554 70.5387 25.9608 70.54 26.4784C70.5561 26.8065 70.5064 27.1344 70.3937 27.4429C70.2811 27.7513 70.1078 28.0342 69.8841 28.2746C69.6604 28.5151 69.3909 28.7083 69.0913 28.8429C68.7918 28.9775 68.4683 29.0508 68.14 29.0584ZM58.82 22.2284C57.9774 22.2304 57.1544 22.4822 56.4549 22.9519C55.7555 23.4217 55.211 24.0883 54.8904 24.8674C54.5698 25.6466 54.4875 26.5033 54.6538 27.3293C54.8201 28.1553 55.2276 28.9134 55.8248 29.5078C56.422 30.1021 57.182 30.5061 58.0087 30.6685C58.8355 30.8309 59.6918 30.7446 60.4695 30.4203C61.2471 30.0961 61.9111 29.5485 62.3776 28.8468C62.844 28.1452 63.092 27.321 63.09 26.4784C63.0981 25.9164 62.9931 25.3584 62.7812 24.8378C62.5692 24.3172 62.2546 23.8445 61.8562 23.4479C61.4578 23.0514 60.9837 22.7391 60.4621 22.5296C59.9404 22.3201 59.382 22.2176 58.82 22.2284ZM58.82 29.0584C58.3036 29.0946 57.7882 28.9745 57.3409 28.7138C56.8937 28.4532 56.5352 28.064 56.312 27.5969C56.0888 27.1298 56.0114 26.6063 56.0897 26.0946C56.1679 25.5829 56.3984 25.1065 56.7509 24.7275C57.1035 24.3484 57.562 24.0842 58.0668 23.9692C58.5715 23.8542 59.0992 23.8937 59.5812 24.0825C60.0632 24.2714 60.4772 24.6009 60.7695 25.0281C61.0618 25.4554 61.2187 25.9608 61.22 26.4784C61.2361 26.8065 61.1864 27.1344 61.0737 27.4429C60.9611 27.7513 60.7878 28.0342 60.5641 28.2746C60.3404 28.5151 60.0709 28.7083 59.7713 28.8429C59.4718 28.9775 59.1483 29.0508 58.82 29.0584ZM47.74 23.5384V25.3384H52.06C51.9922 26.1862 51.6398 26.9862 51.06 27.6084C50.6266 28.05 50.1054 28.3956 49.5301 28.623C48.9547 28.8503 48.3381 28.9544 47.72 28.9284C46.4469 28.9284 45.226 28.4227 44.3259 27.5226C43.4257 26.6224 42.92 25.4015 42.92 24.1284C42.92 22.8554 43.4257 21.6345 44.3259 20.7343C45.226 19.8342 46.4469 19.3284 47.72 19.3284C48.9404 19.3103 50.1189 19.7738 51 20.6184L52.27 19.3484C51.674 18.7589 50.9663 18.2943 50.1884 17.9818C49.4106 17.6693 48.5782 17.5152 47.74 17.5284C46.851 17.4938 45.9641 17.6391 45.1326 17.9554C44.3011 18.2718 43.5419 18.7527 42.9007 19.3694C42.2595 19.9862 41.7494 20.726 41.401 21.5446C41.0525 22.3632 40.8729 23.2438 40.8729 24.1334C40.8729 25.0231 41.0525 25.9036 41.401 26.7222C41.7494 27.5408 42.2595 28.2807 42.9007 28.8974C43.5419 29.5142 44.3011 29.9951 45.1326 30.3115C45.9641 30.6278 46.851 30.773 47.74 30.7384C48.5954 30.7726 49.4484 30.6254 50.2429 30.3066C51.0374 29.9878 51.7555 29.5045 52.35 28.8884C53.4001 27.7348 53.9596 26.2176 53.91 24.6584C53.9136 24.2832 53.8834 23.9083 53.82 23.5384H47.74ZM93.05 24.9384C92.7892 24.1712 92.3015 23.5012 91.6515 23.0173C91.0015 22.5334 90.2198 22.2583 89.41 22.2284C88.863 22.2274 88.3216 22.3385 87.8192 22.555C87.3169 22.7714 86.8643 23.0886 86.4894 23.487C86.1145 23.8853 85.8252 24.3563 85.6396 24.8708C85.4539 25.3854 85.3758 25.9325 85.41 26.4784C85.4014 27.3913 85.6884 28.2824 86.2281 29.0187C86.7678 29.755 87.5312 30.2969 88.4042 30.5636C89.2773 30.8302 90.2132 30.8073 91.0722 30.4981C91.9312 30.189 92.6671 29.6103 93.17 28.8484L91.72 27.8484C91.5038 28.2087 91.1972 28.5062 90.8306 28.7115C90.464 28.9167 90.0501 29.0225 89.63 29.0184C89.1966 29.0363 88.7679 28.9227 88.4002 28.6925C88.0325 28.4622 87.7431 28.1262 87.57 27.7284L93.26 25.3784L93.05 24.9384ZM87.25 26.3584C87.2297 26.0478 87.2716 25.7363 87.3733 25.4421C87.4749 25.1478 87.6342 24.8768 87.8419 24.645C88.0496 24.4131 88.3014 24.225 88.5827 24.0916C88.864 23.9583 89.169 23.8824 89.48 23.8684C89.8022 23.8488 90.123 23.9246 90.4023 24.0865C90.6816 24.2484 90.9069 24.4891 91.05 24.7784L87.25 26.3584ZM82.63 30.4784H84.5V17.9784H82.63V30.4784ZM79.57 23.1784H79.5C79.2206 22.8603 78.8759 22.6062 78.4893 22.4337C78.1027 22.2611 77.6833 22.174 77.26 22.1784C76.1672 22.2314 75.1366 22.7029 74.382 23.495C73.6273 24.2872 73.2063 25.3393 73.2063 26.4334C73.2063 27.5275 73.6273 28.5797 74.382 29.3719C75.1366 30.164 76.1672 30.6354 77.26 30.6884C77.6839 30.6969 78.1046 30.6117 78.4918 30.4389C78.879 30.266 79.2233 30.0098 79.5 29.6884H79.57V30.2984C79.57 31.9284 78.7 32.7984 77.3 32.7984C76.8323 32.7882 76.3782 32.6391 75.9954 32.3703C75.6126 32.1014 75.3184 31.7249 75.15 31.2884L73.53 31.9584C73.8295 32.7107 74.3502 33.3543 75.0234 33.8043C75.6965 34.2542 76.4904 34.4893 77.3 34.4784C79.49 34.4784 81.3 33.1884 81.3 30.0484V22.4784H79.57V23.1784ZM77.42 29.0584C76.7648 29.0176 76.1498 28.7285 75.7003 28.2501C75.2508 27.7717 75.0005 27.1399 75.0005 26.4834C75.0005 25.827 75.2508 25.1952 75.7003 24.7168C76.1498 24.2384 76.7648 23.9493 77.42 23.9084C77.7402 23.9223 78.0544 24.0004 78.3438 24.1381C78.6333 24.2758 78.8921 24.4703 79.1048 24.7101C79.3175 24.9499 79.4798 25.23 79.5821 25.5338C79.6843 25.8376 79.7244 26.1588 79.7 26.4784C79.7273 26.7991 79.6892 27.122 79.5881 27.4276C79.4871 27.7332 79.3251 28.0151 79.1119 28.2562C78.8988 28.4974 78.639 28.6928 78.3482 28.8307C78.0574 28.9686 77.7416 29.0461 77.42 29.0584ZM101.81 17.9784H97.33V30.4784H99.2V25.7384H101.81C102.343 25.7767 102.878 25.7048 103.382 25.5272C103.886 25.3495 104.348 25.07 104.739 24.7059C105.13 24.3419 105.442 23.9012 105.655 23.4113C105.869 22.9214 105.979 22.3928 105.979 21.8584C105.979 21.3241 105.869 20.7955 105.655 20.3056C105.442 19.8157 105.13 19.375 104.739 19.0109C104.348 18.6469 103.886 18.3674 103.382 18.1897C102.878 18.0121 102.343 17.9402 101.81 17.9784ZM101.81 23.9784H99.2V19.7184H101.85C102.131 19.7184 102.409 19.7738 102.669 19.8813C102.929 19.9889 103.164 20.1465 103.363 20.3452C103.562 20.5439 103.72 20.7799 103.827 21.0395C103.935 21.2991 103.99 21.5774 103.99 21.8584C103.99 22.1395 103.935 22.4177 103.827 22.6774C103.72 22.937 103.562 23.1729 103.363 23.3716C103.164 23.5704 102.929 23.728 102.669 23.8355C102.409 23.9431 102.131 23.9984 101.85 23.9984L101.81 23.9784ZM113.35 22.1884C112.669 22.1464 111.991 22.305 111.399 22.6445C110.807 22.9839 110.328 23.4894 110.02 24.0984L111.67 24.7884C111.837 24.4878 112.087 24.242 112.39 24.0805C112.694 23.919 113.038 23.8488 113.38 23.8784C113.617 23.8507 113.858 23.8705 114.088 23.9368C114.317 24.003 114.531 24.1143 114.718 24.2641C114.904 24.414 115.058 24.5995 115.172 24.8097C115.286 25.0199 115.356 25.2506 115.38 25.4884V25.6084C114.779 25.2924 114.109 25.1276 113.43 25.1284C111.65 25.1284 109.83 26.1284 109.83 27.9484C109.848 28.3353 109.943 28.7146 110.11 29.064C110.277 29.4133 110.513 29.7255 110.803 29.9821C111.093 30.2386 111.431 30.4342 111.799 30.5572C112.166 30.6803 112.554 30.7283 112.94 30.6984C113.409 30.7244 113.877 30.6251 114.295 30.4107C114.713 30.1963 115.067 29.8746 115.32 29.4784H115.38V30.4784H117.18V25.6684C117.18 23.4784 115.52 22.2084 113.39 22.2084L113.35 22.1884ZM113.12 29.0384C112.51 29.0384 111.66 28.7284 111.66 27.9784C111.66 26.9784 112.72 26.6384 113.66 26.6384C114.254 26.6238 114.841 26.7688 115.36 27.0584C115.297 27.6015 115.04 28.1034 114.635 28.4712C114.231 28.8389 113.707 29.0475 113.16 29.0584L113.12 29.0384ZM123.74 22.4784L121.6 27.8984H121.54L119.32 22.4784H117.32L120.65 30.0584L118.75 34.2684H120.7L125.82 22.4784H123.74ZM106.94 30.4784H108.8V17.9784H106.94V30.4784Z" fill="white"/>
<path d="M10.44 8.01824C10.1105 8.40786 9.94233 8.90871 9.97 9.41824V31.5382C9.93597 32.0486 10.1049 32.5518 10.44 32.9382L10.51 33.0182L22.9 20.6282V20.3282L10.51 7.94824L10.44 8.01824Z" fill="url(#paint0_linear_3593_757)"/>
<path d="M27 24.7582L22.9 20.6282V20.3282L27 16.1982L27.09 16.2582L32 19.0382C33.4 19.8282 33.4 21.1282 32 21.9282L27.11 24.7082L27 24.7582Z" fill="url(#paint1_linear_3593_757)"/>
<path d="M27.12 24.6983L22.9 20.4783L10.44 32.9383C10.7226 33.1898 11.0843 33.3345 11.4624 33.3473C11.8404 33.3601 12.2111 33.2401 12.51 33.0083L27.12 24.6983Z" fill="url(#paint2_linear_3593_757)"/>
<path d="M27.12 16.2582L12.51 7.95824C12.213 7.72315 11.8427 7.6003 11.4641 7.61127C11.0855 7.62225 10.7229 7.76635 10.44 8.01824L22.9 20.4782L27.12 16.2582Z" fill="url(#paint3_linear_3593_757)"/>
<path opacity="0.2" d="M27 24.6082L12.51 32.8582C12.2219 33.0756 11.8709 33.1932 11.51 33.1932C11.1491 33.1932 10.7981 33.0756 10.51 32.8582L10.44 32.9282L10.51 33.0082C10.7981 33.2256 11.1491 33.3432 11.51 33.3432C11.8709 33.3432 12.2219 33.2256 12.51 33.0082L27.12 24.6982L27 24.6082Z" fill="black"/>
<path opacity="0.12" d="M10.44 32.7982C10.1188 32.4015 9.96138 31.8971 10 31.3882V31.5382C9.96597 32.0486 10.1349 32.5517 10.47 32.9382L10.54 32.8682L10.44 32.7982Z" fill="black"/>
<path opacity="0.12" d="M32 21.7783L27 24.6083L27.09 24.6983L32 21.9183C32.2898 21.7957 32.5413 21.5973 32.7278 21.3439C32.9143 21.0905 33.0291 20.7914 33.06 20.4783C32.9975 20.7628 32.869 21.0287 32.6849 21.2545C32.5007 21.4804 32.2662 21.6597 32 21.7783Z" fill="black"/>
<path opacity="0.25" d="M12.51 8.09825L32 19.1783C32.2662 19.2968 32.5008 19.4762 32.6849 19.702C32.869 19.9278 32.9975 20.1937 33.06 20.4782C33.0291 20.1651 32.9144 19.8661 32.7278 19.6126C32.5413 19.3592 32.2899 19.1608 32 19.0382L12.51 7.95825C11.12 7.15825 9.97003 7.81825 9.97003 9.41825V9.56825C10 7.96825 11.12 7.30825 12.51 8.09825Z" fill="white"/>
</g>
<defs>
<linearGradient id="paint0_linear_3593_757" x1="21.8" y1="9.18824" x2="5.02" y2="25.9682" gradientUnits="userSpaceOnUse">
<stop stop-color="#00A0FF"/>
<stop offset="0.01" stop-color="#00A1FF"/>
<stop offset="0.26" stop-color="#00BEFF"/>
<stop offset="0.51" stop-color="#00D2FF"/>
<stop offset="0.76" stop-color="#00DFFF"/>
<stop offset="1" stop-color="#00E3FF"/>
</linearGradient>
<linearGradient id="paint1_linear_3593_757" x1="33.83" y1="20.4782" x2="9.63997" y2="20.4782" gradientUnits="userSpaceOnUse">
<stop stop-color="#FFE000"/>
<stop offset="0.41" stop-color="#FFBD00"/>
<stop offset="0.78" stop-color="#FFA500"/>
<stop offset="1" stop-color="#FF9C00"/>
</linearGradient>
<linearGradient id="paint2_linear_3593_757" x1="24.83" y1="22.7783" x2="2.07" y2="45.5283" gradientUnits="userSpaceOnUse">
<stop stop-color="#FF3A44"/>
<stop offset="1" stop-color="#C31162"/>
</linearGradient>
<linearGradient id="paint3_linear_3593_757" x1="7.3" y1="0.658242" x2="17.46" y2="10.8182" gradientUnits="userSpaceOnUse">
<stop stop-color="#32A071"/>
<stop offset="0.07" stop-color="#2DA771"/>
<stop offset="0.48" stop-color="#15CF74"/>
<stop offset="0.8" stop-color="#06E775"/>
<stop offset="1" stop-color="#00F076"/>
</linearGradient>
<clipPath id="clip0_3593_757">
<rect width="135" height="40" fill="white" transform="translate(0 0.478271)"/>
</clipPath>
</defs>
</svg>
